<svg width="81" height="80" viewBox="0 0 81 80" fill="none" xmlns="http://www.w3.org/2000/svg">
<path d="M72.2202 8.67794C72.0567 8.6713 71.8931 8.67019 71.7294 8.6748H65.5607V3.37354C65.5609 1.25304 63.5367 0 61.4162 0H55.7295C53.609 0 52.0669 1.25304 52.0669 3.37354V8.67462H28.9343V3.37354C28.9343 1.25304 27.3922 0 25.2717 0H19.5849C17.4646 0 15.4404 1.25304 15.4404 3.37354V8.67462H9.27182C5.33412 8.56485 2.053 11.6681 1.94323 15.6056C1.93862 15.7691 1.93973 15.9329 1.94637 16.0964V71.8071C1.94637 76.0481 5.03063 79.9998 9.27164 79.9998H71.7296C75.9706 79.9998 79.0549 76.0481 79.0549 71.8071V16.0964C79.2161 12.1605 76.156 8.83918 72.2202 8.67794ZM55.7295 3.85543H61.7055V14.4578H55.7295V3.85543ZM19.5851 3.85543H25.0791V14.4578H19.5851V3.85543ZM75.1995 71.8071C75.1995 73.9276 73.8501 76.1444 71.7296 76.1444H9.27182C7.15132 76.1444 5.80198 73.9276 5.80198 71.8071V30.8434H75.1995V71.8071ZM75.1995 16.0964V26.988H5.80179V16.0964C5.63852 14.2939 6.96739 12.7003 8.76983 12.5371C8.93661 12.5219 9.10449 12.5197 9.27164 12.5302H15.4404V14.6507C15.4404 16.7712 17.4644 18.3134 19.5849 18.3134H25.2717C27.2406 18.3674 28.8803 16.815 28.9343 14.8461C28.9362 14.781 28.9362 14.7159 28.9343 14.6507V12.53H52.0669V14.6505C52.0129 16.6194 53.5653 18.2591 55.5342 18.3132C55.5993 18.315 55.6644 18.315 55.7295 18.3132H61.4164C63.5369 18.3132 65.5609 16.771 65.5609 14.6505V12.53H71.7296C73.5359 12.4162 75.0925 13.7883 75.2063 15.5946C75.2168 15.7617 75.2146 15.9296 75.1995 16.0964Z" fill="white"/>
<path d="M29.8023 57.1569L28.0674 66.7955C27.9987 67.2089 28.0666 67.6336 28.2609 68.005C28.7544 68.9483 29.9193 69.313 30.8625 68.8195L39.5372 64.2894L48.2118 68.8195L49.0792 69.0123C49.4975 69.0197 49.9057 68.8835 50.2358 68.6267C50.8119 68.2059 51.1084 67.5015 51.0069 66.7953L49.272 57.1567L56.3082 50.4098C56.8117 49.8658 56.9943 49.0983 56.7901 48.3858C56.5305 47.7272 55.9457 47.2522 55.2479 47.1328L45.6094 45.687L41.2721 36.9159C41.083 36.5255 40.7679 36.2102 40.3775 36.0213C39.4193 35.5573 38.2664 35.9578 37.8022 36.9159L33.4649 45.687L23.8264 47.1328C23.1286 47.252 22.5438 47.7272 22.2842 48.3858C22.08 49.0983 22.2628 49.8658 22.7661 50.4098L29.8023 57.1569ZM35.1035 49.3498C35.7089 49.2592 36.2217 48.8563 36.4529 48.2895L39.5372 42.1208L42.6214 48.2895C42.8528 48.8563 43.3655 49.2592 43.9708 49.3498L50.8141 50.3135L45.8985 55.0364C45.4406 55.4897 45.2258 56.1339 45.3201 56.7713L46.4767 63.6147L40.4044 60.3377L39.537 60.1449L38.6695 60.3377L32.5973 63.6147L33.7538 56.7713C33.8483 56.1339 33.6334 55.4897 33.1755 55.0364L28.2598 50.3135L35.1035 49.3498Z" fill="white"/>
</svg>
