<svg width="88" height="64" fill="none" xmlns="http://www.w3.org/2000/svg"><g clip-path="url(#clip0_2331_1687)"><path d="M34.247 16.933l-2.8-8.466-5.284 15.979h5.6l2.484-7.513z" fill="url(#paint0_radial_2331_1687)"/><path d="M37.266 26.063l5.067 3.616h1.729l-1.731-5.233L34.247 0l-2.8 8.467 2.8 8.466 3.02 9.13z" fill="url(#paint1_radial_2331_1687)"/><path d="M52.101 29.68H80.67L88 24.445H42.331l1.731 5.233h8.04z" fill="url(#paint2_radial_2331_1687)"/><path d="M26.162 29.68l5.066-3.617.534-1.617H9.061l7.33 5.233h9.771z" fill="url(#paint3_radial_2331_1687)"/><path d="M23.213 50.301l-7.332 5.233L13.082 64l21.165-15.108-4.53-3.234-6.504 4.643z" fill="url(#paint4_radial_2331_1687)"/><path d="M26.23 41.171l-1.934-5.85-1.4-.999-1.73 5.232-5.285 15.98 7.332-5.233 3.018-9.13z" fill="url(#paint5_radial_2331_1687)"/><path d="M16.392 29.68l-7.331-5.234H0l21.166 15.108 1.73-5.232-6.504-4.643z" fill="url(#paint6_radial_2331_1687)"/></g><defs><radialGradient id="paint0_radial_2331_1687" cx="0" cy="0" r="1" gradientUnits="userSpaceOnUse" gradientTransform="matrix(17.5963 0 0 17.288 25.837 24.426)"><stop offset=".006" stop-color="#FCEA10"/><stop offset="1" stop-color="#C58511"/></radialGradient><radialGradient id="paint1_radial_2331_1687" cx="0" cy="0" r="1" gradientUnits="userSpaceOnUse" gradientTransform="matrix(31.1404 0 0 30.5948 34.107 -.36)"><stop offset=".006" stop-color="#FCEA10"/><stop offset="1" stop-color="#C58511"/></radialGradient><radialGradient id="paint2_radial_2331_1687" cx="0" cy="0" r="1" gradientUnits="userSpaceOnUse" gradientTransform="matrix(46.2219 0 0 45.4122 41.92 23.875)"><stop offset=".006" stop-color="#FCEA10"/><stop offset="1" stop-color="#C58511"/></radialGradient><radialGradient id="paint3_radial_2331_1687" cx="0" cy="0" r="1" gradientUnits="userSpaceOnUse" gradientTransform="matrix(22.4277 0 0 22.0348 9.158 24.013)"><stop offset=".006" stop-color="#FCEA10"/><stop offset="1" stop-color="#C58511"/></radialGradient><radialGradient id="paint4_radial_2331_1687" cx="0" cy="0" r="1" gradientUnits="userSpaceOnUse" gradientTransform="matrix(25.8461 0 0 25.3933 33.967 48.8)"><stop offset=".006" stop-color="#FCEA10"/><stop offset="1" stop-color="#C58511"/></radialGradient><radialGradient id="paint5_radial_2331_1687" cx="0" cy="0" r="1" gradientUnits="userSpaceOnUse" gradientTransform="matrix(22.339 0 0 21.9476 15.886 55.273)"><stop offset=".006" stop-color="#FCEA10"/><stop offset="1" stop-color="#C58511"/></radialGradient><radialGradient id="paint6_radial_2331_1687" cx="0" cy="0" r="1" gradientUnits="userSpaceOnUse" gradientTransform="matrix(25.7931 0 0 25.3412 21.352 39.436)"><stop offset=".006" stop-color="#FCEA10"/><stop offset="1" stop-color="#C58511"/></radialGradient><clipPath id="clip0_2331_1687"><path fill="#fff" d="M0 0h88v64H0z"/></clipPath></defs></svg>