<?xml version="1.0" standalone="no"?>
<!DOCTYPE svg PUBLIC "-//W3C//DTD SVG 20010904//EN"
 "http://www.w3.org/TR/2001/REC-SVG-20010904/DTD/svg10.dtd">
<svg version="1.0" xmlns="http://www.w3.org/2000/svg"
 width="482.000000pt" height="482.000000pt" viewBox="0 0 482.000000 482.000000"
 preserveAspectRatio="xMidYMid meet">
<metadata>
Created by potrace 1.14, written by Peter Selinger 2001-2017
</metadata>
<g transform="translate(0.000000,482.000000) scale(0.100000,-0.100000)"
fill="#000000" stroke="none">
<path d="M1866 4139 c-2 -8 -99 -303 -215 -655 -116 -353 -211 -647 -211 -653
0 -12 -12 -12 -955 -12 -544 0 -501 10 -366 -84 39 -27 86 -62 104 -77 17 -15
37 -28 44 -28 6 0 13 -4 15 -8 1 -4 25 -23 53 -42 27 -19 56 -40 65 -47 8 -7
177 -127 375 -268 198 -141 365 -262 371 -268 9 -9 -42 -174 -207 -672 -120
-363 -219 -663 -219 -667 0 -6 724 508 773 547 9 8 21 15 26 15 5 0 11 4 13 8
2 5 41 35 87 68 46 32 104 74 130 92 25 18 63 45 84 59 20 14 37 28 37 32 -1
7 -203 152 -230 165 -14 6 -54 -17 -187 -112 -92 -67 -169 -118 -170 -114 -2
4 33 115 76 247 l78 239 -54 161 -54 160 -170 120 c-94 66 -176 125 -183 132
-7 6 -28 21 -47 32 l-34 21 50 1 c28 0 148 0 268 0 l217 0 134 94 c73 52 138
101 143 107 5 7 45 121 88 252 48 147 80 234 85 225 4 -8 42 -119 85 -247 l77
-232 138 -99 138 -100 1049 0 1048 1 100 70 c55 39 132 93 170 120 39 26 84
59 100 72 l30 25 -1244 0 c-685 1 -1248 4 -1251 8 -4 5 -89 258 -190 563 -194
592 -248 751 -255 758 -3 3 -6 -1 -9 -9z"/>
</g>
</svg>
